<svg width="22" height="23" viewBox="0 0 22 23" fill="none" xmlns="http://www.w3.org/2000/svg">
<path fill-rule="evenodd" clip-rule="evenodd" d="M15.3636 21.7687H6.34409C3.031 21.7687 0.489319 20.572 1.21128 15.7556L2.05191 9.22837C2.49695 6.82515 4.02987 5.9054 5.37489 5.9054H16.3724C17.7372 5.9054 19.1811 6.89438 19.6953 9.22837L20.536 15.7556C21.1491 20.028 18.6767 21.7687 15.3636 21.7687Z" stroke="white" stroke-width="2" stroke-linecap="round" stroke-linejoin="round"/>
<path d="M15.512 5.66808C15.512 3.09001 13.4221 1.00004 10.844 1.00004C9.60257 0.994823 8.41016 1.4843 7.53046 2.36029C6.65076 3.23628 6.15625 4.42661 6.15625 5.66808" stroke="white" stroke-width="2" stroke-linecap="round" stroke-linejoin="round"/>
<path d="M14.0475 10.5339H13.998" stroke="white" stroke-width="2" stroke-linecap="round" stroke-linejoin="round"/>
<path d="M7.75062 10.5339H7.70117" stroke="white" stroke-width="2" stroke-linecap="round" stroke-linejoin="round"/>
</svg>
