<svg width="85" height="52" viewBox="0 0 85 52" fill="none" xmlns="http://www.w3.org/2000/svg">
<path d="M74.7315 51.968C73.726 51.968 73.269 51.4805 72.2025 51.4805L71.3493 45.9349H71.9588C73.1166 50.8101 73.8174 51.3586 74.7925 51.3586C75.7675 51.3586 76.2246 50.475 77.0473 47.9459L77.7786 45.7521H76.8644L72.0806 32.7718C71.3798 30.8522 70.8314 30.6999 69.7344 30.3952V30.0905H76.4988V30.3952C74.8839 30.6999 74.7925 30.8522 75.4933 32.8023L78.9059 42.3394L82.0748 32.8023C82.7147 30.8827 82.6233 30.6999 81.0084 30.3952V30.0905H85V30.3952C83.8726 30.6999 83.3546 30.8827 82.7147 32.8023L77.7176 47.885C76.834 50.475 76.3769 51.968 74.7315 51.968Z" fill="white"/>
<path d="M57.9336 37.5861C57.9336 32.7718 60.5845 29.6638 64.5456 29.6638C66.1301 29.6638 67.0442 30.1818 68.3848 30.1818L69.1771 35.4836H68.5677C67.5317 31.035 66.191 30.2732 64.8503 30.2732C62.4432 30.2732 61.3767 33.1679 61.3767 37.0071C61.3767 40.7549 62.4127 44.259 65.3378 44.259C66.8004 44.259 68.3544 43.3144 69.3904 39.6885L69.9693 39.8408C68.72 44.3809 66.648 45.752 64.1495 45.752C60.3103 45.752 57.9336 42.8269 57.9336 37.5861Z" fill="white"/>
<path d="M43.9735 33.4726C43.9735 31.4311 43.6993 31.2178 42.4805 30.9131V30.6084H44.4306C45.3142 30.5779 46.0455 30.3951 46.6853 29.6638H46.99V32.071C48.1479 30.8826 49.7019 29.6638 51.6824 29.6638C54.1201 29.6638 55.6131 31.0045 55.6131 34.1734V42.4613C55.6131 44.5028 55.8873 44.7161 57.0757 45.0208V45.3255H51.1035V45.0208C52.3223 44.7161 52.5966 44.5028 52.5966 42.4613V33.4421C52.5966 31.7053 51.9872 30.7607 50.7074 30.7607C49.4886 30.7607 48.2393 31.5834 46.99 32.8327V42.4613C46.99 44.5028 47.2643 44.7161 48.4526 45.0208V45.3255H42.4805V45.0208C43.6993 44.7161 43.9735 44.5028 43.9735 42.4613V33.4726Z" fill="white"/>
<path d="M29.7266 37.647C29.7266 32.7718 32.3775 29.6638 36.1253 29.6638C39.1114 29.6638 41.2747 31.7053 41.2747 35.6664H33.1392V36.4587C33.1392 40.7854 34.2361 44.259 37.1917 44.259C38.6543 44.259 40.2692 43.3144 41.3357 39.6885L41.9146 39.8408C40.6653 44.4418 38.502 45.752 36.0034 45.752C32.1337 45.752 29.7266 42.8269 29.7266 37.647ZM33.1697 35.057H38.1973C38.1973 31.6444 37.4355 30.2732 36.0339 30.2732C34.2057 30.2732 33.383 32.1014 33.1697 35.057Z" fill="white"/>
<path d="M21.6884 43.7411C20.3172 43.7411 19.1593 43.4059 18.2148 42.827C17.8491 43.0403 17.5749 43.2231 17.5749 43.5887C17.5749 44.2286 18.5804 44.5333 21.6579 45.4474C25.5885 46.5748 27.63 47.0318 27.63 49.1038C27.63 51.2062 25.3448 51.9985 23.1205 51.9985C20.2563 51.9985 18.8546 51.1148 18.8546 49.6523C18.8546 48.6163 19.6469 47.8545 20.8047 47.3975C17.2092 46.392 15.6553 45.8435 15.6553 44.5028C15.6553 43.4668 16.5389 42.8879 17.6968 42.4613C16.1733 41.2425 15.381 39.2315 15.381 36.7025C15.381 32.4367 17.6663 29.6334 21.6884 29.6334C22.4501 29.6334 23.1205 29.7248 23.7603 29.9076C24.4002 28.5669 25.2534 27.6224 26.6855 26.952L27.9652 28.7498C25.9237 28.8107 25.0401 29.2068 24.3088 30.1209C26.6855 31.0655 28.0261 33.4422 28.0261 36.7025C28.0261 40.9683 25.7409 43.7411 21.6884 43.7411ZM18.7632 36.7025C18.7632 40.5112 19.464 43.1317 21.6884 43.1317C23.9431 43.1317 24.644 40.4808 24.644 36.7025C24.644 32.8937 23.9431 30.2428 21.6884 30.2428C19.464 30.2428 18.7632 32.8937 18.7632 36.7025ZM20.5305 49.5609C20.5305 50.7797 21.4446 51.3891 23.1509 51.3891C24.6744 51.3891 25.4667 50.7492 25.4667 49.8351C25.4667 48.7382 24.7354 48.4944 21.7493 47.6412C21.0485 48.0374 20.5305 48.5858 20.5305 49.5609Z" fill="white"/>
<path d="M10.6341 45.7216C9.9942 45.7216 9.59809 45.3255 9.59809 44.2895V43.4363C8.74493 44.8684 7.3433 45.752 5.51509 45.752C2.46808 45.752 0 43.802 0 39.5361C0 35.3008 2.46808 33.3812 5.54556 33.3812C7.37377 33.3812 8.74493 34.2039 9.59809 35.6664V34.9656C9.59809 31.4006 8.80587 30.2732 6.7339 30.2732C5.27133 30.2732 3.22983 30.9131 1.4321 33.3507H0.792224L2.40714 30.2123C3.93065 30.2123 5.36274 29.6638 7.13001 29.6638C10.5122 29.6638 12.6451 31.2787 12.6451 35.0266V42.0956C12.6451 44.1371 12.6451 44.2285 14.2296 43.7715L14.3514 44.0152L12.0662 45.2341C11.4568 45.5388 11.0607 45.7216 10.6341 45.7216ZM3.38218 39.5361C3.38218 42.7964 4.63146 44.5942 6.45967 44.5942C8.22694 44.5942 9.59809 42.9183 9.59809 39.5361C9.59809 36.1844 8.22694 34.5086 6.49014 34.5086C4.63146 34.5086 3.38218 36.2758 3.38218 39.5361Z" fill="white"/>
<path d="M64.2959 22.4211C63.6214 22.4211 63.0511 22.193 62.5849 21.7367C62.1286 21.2705 61.9005 20.7052 61.9005 20.0406C61.9005 19.3761 62.1286 18.8157 62.5849 18.3594C63.0511 17.8932 63.6214 17.6602 64.2959 17.6602C64.9703 17.6602 65.5357 17.8932 65.992 18.3594C66.4581 18.8157 66.6912 19.3761 66.6912 20.0406C66.6912 20.7052 66.4581 21.2705 65.992 21.7367C65.5357 22.193 64.9703 22.4211 64.2959 22.4211Z" fill="white"/>
<path d="M52.3945 22.1682V5.53457H56.1884V8.33163H56.367C56.6645 7.35961 57.1852 6.61571 57.9291 6.09993C58.673 5.57425 59.5211 5.3114 60.4733 5.3114C60.6816 5.3114 60.9196 5.32132 61.1874 5.34116C61.4651 5.36099 61.6933 5.38579 61.8718 5.41555V9.01602C61.7032 8.95651 61.4404 8.90692 61.0833 8.86724C60.7262 8.82757 60.384 8.80773 60.0567 8.80773C59.3326 8.80773 58.6879 8.96147 58.1226 9.26895C57.5572 9.57643 57.1109 9.99797 56.7835 10.5336C56.4661 11.0692 56.3074 11.6941 56.3074 12.4082V22.1682H52.3945Z" fill="white"/>
<path d="M42.8872 22.4955C41.2209 22.4955 39.7827 22.1483 38.5726 21.454C37.3625 20.7498 36.4302 19.7579 35.7755 18.4784C35.1308 17.1989 34.8085 15.6913 34.8085 13.9555C34.8085 12.2396 35.1308 10.7369 35.7755 9.4475C36.4203 8.14815 37.3278 7.13645 38.4982 6.41239C39.6686 5.68833 41.0473 5.32629 42.6343 5.32629C43.6559 5.32629 44.623 5.48995 45.5355 5.81727C46.4579 6.14458 47.2713 6.65044 47.9755 7.33482C48.6896 8.01921 49.25 8.89205 49.6567 9.95335C50.0634 11.0047 50.2667 12.2594 50.2667 13.7175V14.9375H36.6385V12.3041H48.3177L46.4877 13.0777C46.4877 12.1355 46.3439 11.3172 46.0562 10.6229C45.7686 9.91863 45.3421 9.36815 44.7767 8.9714C44.2114 8.57466 43.5071 8.37628 42.6641 8.37628C41.821 8.37628 41.1019 8.57466 40.5067 8.9714C39.9116 9.36815 39.4603 9.90376 39.1528 10.5782C38.8454 11.2428 38.6916 11.9867 38.6916 12.8099V14.6399C38.6916 15.6516 38.8652 16.5195 39.2124 17.2436C39.5694 17.9577 40.0654 18.5032 40.7002 18.8801C41.3449 19.2571 42.0937 19.4455 42.9467 19.4455C43.5022 19.4455 44.008 19.3662 44.4643 19.2075C44.9305 19.0488 45.3272 18.8107 45.6545 18.4933C45.9918 18.166 46.2496 17.7643 46.4282 17.2882L50.0882 17.7197C49.8501 18.6818 49.4087 19.5249 48.764 20.2489C48.1292 20.9631 47.3109 21.5185 46.3092 21.9153C45.3173 22.3021 44.1766 22.4955 42.8872 22.4955Z" fill="white"/>
<path d="M33.5446 5.53469V8.56981H24.0078V5.53469H33.5446ZM26.3437 1.57715H30.2566V17.1693C30.2566 17.8239 30.4004 18.3099 30.688 18.6273C30.9757 18.9348 31.4319 19.0885 32.0568 19.0885C32.2254 19.0885 32.4139 19.0737 32.6222 19.0439C32.8305 19.0142 33.0189 18.9794 33.1875 18.9398L33.857 22.0046C33.4405 22.1336 33.0189 22.2278 32.5924 22.2873C32.1659 22.3567 31.7394 22.3915 31.3129 22.3915C29.7656 22.3915 28.5506 21.9848 27.6678 21.1715C26.785 20.3482 26.3437 19.2274 26.3437 17.809V1.57715Z" fill="white"/>
<path d="M11.6727 12.4381V22.1683H7.75977V5.53471H11.5983V8.37641H11.7917C12.1686 7.44405 12.7588 6.70511 13.5622 6.15958C14.3755 5.60414 15.4071 5.32642 16.6568 5.32642C17.8074 5.32642 18.8092 5.56942 19.6622 6.05544C20.5152 6.54145 21.1748 7.2556 21.6409 8.19787C22.117 9.13022 22.3551 10.261 22.3551 11.5901V22.1683H18.4422V12.2C18.4422 11.0892 18.1545 10.2213 17.5792 9.5964C17.004 8.96161 16.2105 8.64421 15.1988 8.64421C14.5144 8.64421 13.9044 8.79299 13.3688 9.09055C12.8431 9.38811 12.4265 9.81957 12.119 10.3849C11.8215 10.9404 11.6727 11.6248 11.6727 12.4381Z" fill="white"/>
<path d="M4.71042 0V22.1682H0.693359V0H4.71042Z" fill="white"/>
</svg>
